{"title":"Step Up Revolution [2012] DVDRip x264 AAC-V3nom","uid":7815819,"size":364626264,"categoryP":"video","categoryS":"movies","magnet":"?xt=urn:btih:94638b499bf1312d39030ece98bdc18c0299b3b4&amp;dn=Step+Up+Revolution+%5B2012%5D+DVDRip+x264+AAC-V3nom&amp;tr=udp%3A%2F%2Ftracker.openbittorrent.com%3A80&amp;tr=udp%3A%2F%2Fopen.demonii.com%3A1337&amp;tr=udp%3A%2F%2Ftracker.coppersurfer.tk%3A6969&amp;tr=udp%3A%2F%2Fexodus.desync.com%3A6969","seeders":0,"leechers":1,"uploader":"V3nom","files":-1,"time":1352658818,"description":"[img]http://img145.imageshack.us/img145/8956/stepuprevolution12.jpg[/img]\n\n[b][size=200][color=black]PLOT[/color][/size][/b]\n\n[code]Emily arrives in Miami with aspirations to become a professional dancer. \nShe sparks with Sean, the leader of a dance crew whose neighborhood is threatened by \nEmily's father's development plans. [/code]\n\n[b][size=200][color=black]IMDB[/color][/size][/b]\n\n[code]http://www.imdb.com/title/tt1800741/[/code]\n\n[b][size=200][color=black]MOVIE INFO[/color][/size][/b]\n\n[code]Step Up Revolution [2012] DVDRip x264 AAC-V3nom\n\nFormat                                   : MPEG-4\nFormat profile                           : Base Media / Version 2\nCodec ID                                 : mp42\nFile size                                : 347 MiB\nDuration                                 : 1h 38mn\nOverall bit rate mode                    : Variable\nOverall bit rate                         : 493 Kbps\nEncoded date                             : UTC 2012-11-10 12:40:56\nTagged date                              : UTC 2012-11-10 13:02:23\n\nVideo\nID                                       : 1\nFormat                                   : AVC\nFormat/Info                              : Advanced Video Codec\nFormat profile                           : &lt;a class=&quot;__cf_email__&quot; href=&quot;/cdn-cgi/l/email-protection&quot; data-cfemail=&quot;460b272f28060a746877&quot;&gt;[email&amp;#160;protected]&lt;/a&gt;&lt;script cf-hash='f9e31' type=&quot;text/javascript&quot;&gt;\n/* &lt;![CDATA[ */!function(){try{var t=&quot;currentScript&quot;in document?document.currentScript:function(){for(var t=document.getElementsByTagName(&quot;script&quot;),e=t.length;e--;)if(t[e].getAttribute(&quot;cf-hash&quot;))return t[e]}();if(t&amp;&amp;t.previousSibling){var e,r,n,i,c=t.previousSibling,a=c.getAttribute(&quot;data-cfemail&quot;);if(a){for(e=&quot;&quot;,r=parseInt(a.substr(0,2),16),n=2;a.length-n;n+=2)i=parseInt(a.substr(n,2),16)^r,e+=String.fromCharCode(i);e=document.createTextNode(e),c.parentNode.replaceChild(e,c)}}}catch(u){}}();/* ]]&gt; */&lt;/script&gt;\nFormat settings, CABAC                   : Yes\nFormat settings, ReFrames                : 4 frames\nCodec ID                                 : avc1\nCodec ID/Info                            : Advanced Video Coding\nDuration                                 : 1h 38mn\nBit rate mode                            : Variable\nBit rate                                 : 380 Kbps\nWidth                                    : 640 pixels\nHeight                                   : 272 pixels\nDisplay aspect ratio                     : 2.35:1\nFrame rate mode                          : Variable\nFrame rate                               : 23.976 fps\nMinimum frame rate                       : 23.974 fps\nMaximum frame rate                       : 90 000.000 fps\nColor space                              : YUV\nChroma subsampling                       : 4:2:0\nBit depth                                : 8 bits\nScan type                                : Progressive\nBits/(Pixel*Frame)                       : 0.091\nStream size                              : 265 MiB (76%)\nWriting library                          : x264\n\nAudio\nID                                       : 2\nFormat                                   : AAC\nFormat/Info                              : Advanced Audio Codec\nFormat profile                           : LC\nCodec ID                                 : 40\nDuration                                 : 1h 38mn\nBit rate mode                            : Variable\nBit rate                                 : 112 Kbps\nMaximum bit rate                         : 231 Kbps\nChannel(s)                               : 2 channels\nChannel positions                        : Front: L R\nSampling rate                            : 48.0 KHz\nCompression mode                         : Lossy\nDelay relative to video                  : 83ms\nStream size                              : 78.9 MiB (23%)\nEncoded date                             : UTC 2012-11-10 12:40:56\nTagged date                              : UTC 2012-11-10 13:02:17[/code]\n\n[b][size=200][color=black]SOURCE[/color][/size][/b]\n\n[code]Step.Up.Revolution.2012.DVDRip.XviD-SPARKS(Thanks)[/code]\n\n[b][size=200][color=black]SCREENSHOTS[/color][/size][/b]\n\n[img]http://img72.imageshack.us/img72/258/stepuprevolution2012dvd.jpg[/img]\n\n[img]http://kastatic.com/i2/users/133df62bbf28e62494bb17fe11078f1a.gif[/img][img]http://kastatic.com/i2/users/133df62bbf28e62494bb17fe11078f1a.gif[/img]","torrent":{"xt":"urn:btih:94638b499bf1312d39030ece98bdc18c0299b3b4","amp;dn":"Step+Up+Revolution+%5B2012%5D+DVDRip+x264+AAC-V3nom","amp;tr":["udp%3A%2F%2Ftracker.openbittorrent.com%3A80","udp%3A%2F%2Fopen.demonii.com%3A1337","udp%3A%2F%2Ftracker.coppersurfer.tk%3A6969","udp%3A%2F%2Fexodus.desync.com%3A6969"],"infoHash":"94638b499bf1312d39030ece98bdc18c0299b3b4","infoHashBuffer":{"type":"Buffer","data":[148,99,139,73,155,241,49,45,57,3,14,206,152,189,193,140,2,153,179,180]},"announce":[],"urlList":[]}}